# xmcd
# Track frame offsets:
# 150
# 13110
# 24537
# 37967
# 47567
# 59235
# 76692
# 93975
# 103980
# 135692
#
# Disc length: 2024 seconds
# Revision: 0
# Processed by: cddbd v1.5.1PL0 Copyright (c) Steve Scherf et al.
# Submitted via: VisiTrax 2.9.10.228 - For more info visit www.synapsa.com
#
DISCID=7e07e60a
DTITLE=Various Artist - Warner Westeren Sampler vol 1
DYEAR=1992
DGENRE=country
TTITLE0=Don Edwards - Diamond Joe
TTITLE1=Don Edwards - Down By The Brazos
TTITLE2=Don Edwards - The Colorado Trail
TTITLE3=Sons of the San Jauquin - Timber Trail
TTITLE4=Sons of the San Jouquin - The Boss Is Hangin`out a Rainbow
TTITLE5=Sons of the San Jouquin - Blue Prairie
TTITLE6=Waddie Mitehell - The Riders
TTITLE7=Waddie Mitchell - Thanksgiving Day Argument
TTITLE8=Waddie Mitchell - When They`ve Finished Shipping Cattle In The Fall
TTITLE9=Michael Martin Murphey - Cowoby Logic
EXTD=
EXTT0=
EXTT1=
EXTT2=
EXTT3=
EXTT4=
EXTT5=
EXTT6=
EXTT7=
EXTT8=
EXTT9=
PLAYORDER=
